<?xml version="1.0" encoding="utf-8"?>
<!-- Generator: Adobe Illustrator 19.0.0, SVG Export Plug-In . SVG Version: 6.00 Build 0)  -->
<svg version="1.1" id="Layer_1" xmlns="http://www.w3.org/2000/svg" xmlns:xlink="http://www.w3.org/1999/xlink" x="0px" y="0px"
	 viewBox="0 0 232 51" style="enable-background:new 0 0 232 51;" xml:space="preserve">
<style type="text/css">
	.st0{fill:#1E407B;}
	.st1{fill:#179BD7;}
	.st2{fill:#99D8F3;}
</style>
<g id="XMLID_116_">
	<path id="XMLID_361_" class="st0" d="M61.8,7.2v26.6c0,2.6,1.3,3.5,2.6,3.5h1.2V41H64c-3.7,0-6.1-2.1-6.1-6.9V7.2H61.8z"/>
	<path id="XMLID_358_" class="st0" d="M70.9,7.7c1.6,0,2.8,1.2,2.8,2.8c0,1.6-1.2,2.8-2.8,2.8s-2.8-1.2-2.8-2.8
		C68.1,8.9,69.4,7.7,70.9,7.7z M68.9,17.8h4V41h-4V17.8z"/>
	<path id="XMLID_355_" class="st0" d="M96.6,17.8h4v33h-4V37.5h-0.1c-1.7,2.4-4.6,4.1-8.6,4.1c-6.4,0-12.2-5.1-12.2-12.4
		c0-6.7,5.5-11.9,12.1-11.9c3.4,0,6.9,1.4,8.8,4.2h0.1V17.8z M88.4,21c-5.4,0-8.5,4.3-8.5,8.2c0,5.3,4.1,8.6,8.4,8.6
		c4.6,0,8.3-3.7,8.3-8.4C96.6,24.8,92.8,21,88.4,21z"/>
	<path id="XMLID_353_" class="st0" d="M119.3,38.3L119.3,38.3c-1.3,2.1-3.9,3.2-6.4,3.2c-4.5,0-8.9-2.4-8.9-8.7v-15h4v13.5
		c0,3.5,1.4,6.5,5.4,6.5c3.7,0,6-2.5,6-6.9v-13h4V41h-4V38.3z"/>
	<path id="XMLID_350_" class="st0" d="M129,7.7c1.6,0,2.8,1.2,2.8,2.8c0,1.6-1.2,2.8-2.8,2.8s-2.8-1.2-2.8-2.8
		C126.2,8.9,127.5,7.7,129,7.7z M127,17.8h4V41h-4V17.8z"/>
	<path id="XMLID_346_" class="st0" d="M154.4,7.2h4V41h-4v-3.6h-0.1c-1.7,2.4-4.6,4.1-8.6,4.1c-6.4,0-12.2-5.1-12.2-12.4
		c0-6.7,5.5-11.9,12.1-11.9c3.4,0,6.9,1.4,8.8,4.2h0.1V7.2z M146.2,21c-5.4,0-8.5,4.3-8.5,8.2c0,5.3,4.1,8.6,8.4,8.6
		c4.6,0,8.3-3.7,8.3-8.4C154.4,24.8,150.5,21,146.2,21z"/>
	<path id="XMLID_344_" class="st1" d="M177.5,27.5c0-3.5-1.4-6.5-5.4-6.5c-3.7,0-6,2.5-6,6.9v13h-4V7.2h4v13.3h0.1
		c1.2-2.1,3.8-3.2,6.4-3.2c4.5,0,8.9,2.4,8.9,8.7v15h-4V27.5z"/>
	<path id="XMLID_342_" class="st1" d="M199.8,38.3L199.8,38.3c-1.3,2.1-3.9,3.2-6.4,3.2c-4.5,0-8.9-2.4-8.9-8.7v-15h4v13.5
		c0,3.5,1.4,6.5,5.4,6.5c3.7,0,6-2.5,6-6.9v-13h4V41h-4V38.3z"/>
	<path id="XMLID_339_" class="st1" d="M207,7.2h4v14.3h0.1c1.9-2.8,5.4-4.2,8.8-4.2c6.5,0,12.1,5.2,12.1,11.9
		c0,7.3-5.8,12.4-12.2,12.4c-4,0-6.9-1.7-8.6-4.1h-0.1V41h-4V7.2z M219.2,21c-4.4,0-8.2,3.7-8.2,8.4c0,4.6,3.7,8.4,8.3,8.4
		c4.2,0,8.4-3.2,8.4-8.6C227.7,25.4,224.7,21,219.2,21z"/>
	<path id="XMLID_338_" class="st2" d="M18.9,8c-0.4-0.9-1-1.8-1.7-2.5C15.6,3.9,13.5,3,11.3,3C9.1,3,7,3.9,5.4,5.4S3,9.1,3,11.3
		c0,2.2,0.9,4.3,2.4,5.9c0.7,0.7,1.6,1.3,2.5,1.7c-2.1,0.9-4,2.3-5.5,4C0.8,20.5,0,17.7,0,14.8c0-4,1.5-7.7,4.3-10.5S10.9,0,14.8,0
		c2.9,0,5.7,0.8,8.1,2.4C21.2,4,19.8,5.8,18.9,8z"/>
	<path id="XMLID_337_" class="st2" d="M30.3,41.2c0.4,0.9,1,1.8,1.7,2.6c1.6,1.6,3.7,2.4,5.9,2.4c4.6,0,8.3-3.7,8.3-8.3
		c0-2.2-0.9-4.3-2.4-5.9c-0.7-0.7-1.6-1.3-2.5-1.7c2.1-0.9,4-2.3,5.6-4c1.6,2.4,2.4,5.2,2.4,8.1c0,4-1.5,7.7-4.3,10.5
		c-2.8,2.8-6.5,4.3-10.5,4.3c-2.9,0-5.7-0.8-8.1-2.4C28,45.2,29.4,43.4,30.3,41.2z"/>
	<path id="XMLID_336_" class="st1" d="M29.6,32.8c-0.1-0.8-2.3-0.9-5-0.9c-2.7,0-4.8,0.1-5,0.9c0,0,0,0,0,0l0,5.2
		c0,0.6-0.1,1.1-0.2,1.7c-0.1,0.6-0.3,1.1-0.5,1.6c-1.3,2.9-4.2,5-7.6,5c-2.2,0-4.3-0.9-5.9-2.4C3.8,42.2,3,40.2,3,37.9
		c0-3.4,2.1-6.3,5-7.6c0.5-0.2,1.1-0.4,1.6-0.5c0.5-0.1,1.1-0.2,1.7-0.2l5.1,0c0,0,0,0,0,0c0,0,0,0,0,0h0c0,0,0,0,0,0
		c0.8-0.1,0.9-2.3,0.9-5c0-2.7-0.1-4.8-0.9-5c0,0,0,0,0,0l-2.2,0c-4.2,0.1-8,2-10.6,5c-0.2,0.3-0.5,0.6-0.7,0.8
		c-0.2,0.3-0.4,0.6-0.6,0.9c-1.5,2.3-2.4,5.1-2.4,8c0,4,1.5,7.7,4.3,10.5s6.5,4.3,10.5,4.3c3,0,5.7-0.9,8-2.4
		c0.3-0.2,0.6-0.4,0.9-0.6c0.3-0.2,0.6-0.5,0.8-0.7c3.1-2.7,5-6.7,5-11.1L29.6,32.8C29.6,32.8,29.6,32.8,29.6,32.8z"/>
	<path id="XMLID_335_" class="st1" d="M44.9,4.3C42.1,1.5,38.4,0,34.4,0c-3,0-5.7,0.9-8,2.4C26,2.6,25.7,2.8,25.4,3
		c-0.3,0.2-0.6,0.5-0.8,0.7c-3,2.7-5,6.6-5,11l0,2c0,0,0,0,0,0c0.1,0.8,2.3,0.9,5,0.9c2.8,0,5-0.2,5-1c0,0,0,0,0,0l0-5.4
		c0-0.6,0.1-1.1,0.2-1.7C29.9,9,30.1,8.5,30.3,8c1.3-2.9,4.2-5,7.6-5c2.2,0,4.3,0.9,5.9,2.4c1.6,1.6,2.4,3.7,2.4,5.9
		c0,3.4-2.1,6.3-5,7.6c-0.5,0.2-1.1,0.4-1.6,0.5c-0.6,0.1-1.1,0.2-1.7,0.2l-3.4,0l-1.5,0c0,0,0,0,0,0s0,0,0,0h-0.1c0,0,0,0,0,0
		c-0.7,0.2-0.8,2.4-0.8,5c0,2.7,0.2,4.9,0.9,5c0,0,0,0,0,0l1.8,0c4.3-0.1,8.1-2,10.8-5c0.2-0.3,0.5-0.6,0.7-0.8
		c0.2-0.3,0.4-0.6,0.6-0.9c1.5-2.3,2.4-5.1,2.4-8C49.2,10.9,47.7,7.1,44.9,4.3z"/>
</g>
</svg>
