<?xml version="1.0" encoding="utf-8"?>
<!-- Generator: Adobe Illustrator 16.0.0, SVG Export Plug-In . SVG Version: 6.00 Build 0)  -->
<!DOCTYPE svg PUBLIC "-//W3C//DTD SVG 1.1//EN" "http://www.w3.org/Graphics/SVG/1.1/DTD/svg11.dtd">
<svg version="1.1" id="Layer_1" xmlns="http://www.w3.org/2000/svg" xmlns:xlink="http://www.w3.org/1999/xlink" x="0px" y="0px"
	 width="100px" height="100px" viewBox="0 0 100 100" enable-background="new 0 0 100 100" xml:space="preserve">
<g>
	<path fill="#FAA635" d="M57.406,38.463H15.389v5.768H54.17C55.166,42.401,56.242,40.482,57.406,38.463 M15.389,55.768H48.48
		c0.771-1.803,1.669-3.725,2.685-5.767H15.389V55.768z M15.389,67.32l30.875-0.057c0.771-1.804,0.958-3.671,1.973-5.714H15.389
		V67.32z M15.389,78.871l28.922-0.057c0.772-1.804,0.958-3.668,1.974-5.711H15.389V78.871z M59.904,31.28
		c0.115-0.194,0.701-1.163,1.633-2.614v-1.741H38.462v5.765h20.8C59.425,32.2,59.637,31.728,59.904,31.28 M67.307,70.465v14.146
		H9.62V36.539c0-1.592,1.292-3.848,2.884-3.848h8.653c3.186,0,5.769-2.58,5.769-5.766v-8.653c0-1.593,2.253-2.886,3.846-2.886
		h36.535v4.999c1.672-2.217,3.536-4.531,5.506-6.707c-0.268-0.866-0.742-1.683-1.428-2.369c-1.127-1.126-2.603-1.69-4.078-1.69
		H31.251c-3.684,0-7.24,1.473-9.847,4.079L7.93,27.173c-2.606,2.605-4.079,6.163-4.079,9.848v47.59c0,1.477,0.563,2.953,1.69,4.078
		c1.127,1.127,2.603,1.69,4.079,1.69h57.687c1.477,0,2.951-0.563,4.078-1.69c1.127-1.125,1.69-2.603,1.69-4.078V62.539
		C71.04,65.607,69.131,68.236,67.307,70.465"/>
	<path fill="#FAA635" d="M50.334,72.617c-1.779,3.932-2.56,6.781-1.819,7.207c0.737,0.428,2.816-1.674,5.333-5.18
		c4.705-2.164,10.613-8.017,21.103-26.187L62.46,41.25C51.973,59.416,49.854,67.459,50.334,72.617 M95.131,20.147
		c-0.639-0.37-1.46-0.035-1.628,0.683c-1.956,8.445-6.905,18.74-9.974,24.283c-0.385,0.693-0.137,1.562,0.551,1.958
		c0.705,0.407,1.596,0.12,1.99-0.593c2.729-4.92,6.4-12.552,8.763-19.744c0.494-1.504,0.909-2.93,1.252-4.277
		C96.313,21.559,95.934,20.609,95.131,20.147 M88.895,9.884c-4.008-2.315-16.049,10.98-24.037,24.354
		c-0.416,0.698-0.215,1.609,0.486,2.016l12.49,7.21c0.704,0.407,1.594,0.125,1.988-0.584C87.412,29.272,92.906,12.199,88.895,9.884"
		/>
</g>
</svg>
