<?xml version="1.0" encoding="utf-8"?>
<!-- Generator: Adobe Illustrator 16.0.0, SVG Export Plug-In . SVG Version: 6.00 Build 0)  -->
<!DOCTYPE svg PUBLIC "-//W3C//DTD SVG 1.1//EN" "http://www.w3.org/Graphics/SVG/1.1/DTD/svg11.dtd">
<svg version="1.1" id="Layer_1" xmlns="http://www.w3.org/2000/svg" xmlns:xlink="http://www.w3.org/1999/xlink" x="0px" y="0px"
	 width="32px" height="32px" viewBox="0 0 32 32" enable-background="new 0 0 32 32" xml:space="preserve">
<path fill="#FFFFFF" d="M30.18,5.25c-0.453-0.453-0.988-0.679-1.607-0.679h-2.287V2.858c0-0.787-0.278-1.459-0.838-2.019
	C24.888,0.28,24.215,0,23.429,0h-1.144c-0.784,0-1.457,0.279-2.017,0.839c-0.56,0.559-0.84,1.232-0.84,2.019v1.713h-6.857V2.858
	c0-0.787-0.28-1.459-0.839-2.019C11.173,0.28,10.5,0,9.714,0H8.572C7.786,0,7.113,0.28,6.554,0.839
	c-0.56,0.559-0.84,1.232-0.84,2.019v1.713H3.428c-0.619,0-1.154,0.227-1.606,0.679S1.143,6.239,1.143,6.857v22.856
	c0,0.62,0.227,1.156,0.679,1.608C2.274,31.775,2.81,32,3.428,32h25.144c0.619,0,1.154-0.225,1.607-0.678
	c0.452-0.452,0.678-0.988,0.678-1.608V6.857C30.857,6.239,30.632,5.703,30.18,5.25z M8.572,29.714H3.428v-5.143h5.144V29.714z
	 M8.572,23.429H3.428v-5.715h5.144V23.429z M8.572,16.571H3.428v-5.143h5.144V16.571z M8.17,8.402C8.057,8.29,8,8.155,8,8V2.858
	c0-0.155,0.057-0.289,0.17-0.402c0.113-0.114,0.247-0.17,0.402-0.17h1.143c0.155,0,0.289,0.057,0.402,0.17
	c0.112,0.113,0.17,0.247,0.17,0.402V8c0,0.155-0.058,0.29-0.17,0.402c-0.113,0.113-0.247,0.17-0.402,0.17H8.572
	C8.417,8.572,8.283,8.515,8.17,8.402z M15.429,29.714H9.714v-5.143h5.714V29.714z M15.429,23.429H9.714v-5.715h5.714V23.429z
	 M15.429,16.571H9.714v-5.143h5.714V16.571z M22.285,29.714h-5.713v-5.143h5.713V29.714z M22.285,23.429h-5.713v-5.715h5.713V23.429
	z M22.285,16.571h-5.713v-5.143h5.713V16.571z M21.884,8.402C21.771,8.29,21.715,8.155,21.715,8V2.858
	c0-0.155,0.057-0.289,0.169-0.402c0.113-0.114,0.248-0.17,0.401-0.17h1.144c0.155,0,0.289,0.057,0.402,0.17
	c0.112,0.113,0.17,0.247,0.17,0.402V8c0,0.155-0.058,0.29-0.17,0.402c-0.113,0.113-0.247,0.17-0.402,0.17h-1.144
	C22.132,8.572,21.997,8.515,21.884,8.402z M28.572,29.714h-5.144v-5.143h5.144V29.714z M28.572,23.429h-5.144v-5.715h5.144V23.429z
	 M28.572,16.571h-5.144v-5.143h5.144V16.571z"/>
</svg>
