<?xml version="1.0" encoding="utf-8"?>
<!-- Generator: Adobe Illustrator 16.0.0, SVG Export Plug-In . SVG Version: 6.00 Build 0)  -->
<!DOCTYPE svg PUBLIC "-//W3C//DTD SVG 1.1//EN" "http://www.w3.org/Graphics/SVG/1.1/DTD/svg11.dtd">
<svg version="1.1" id="Layer_1" xmlns="http://www.w3.org/2000/svg" xmlns:xlink="http://www.w3.org/1999/xlink" x="0px" y="0px"
	 width="32px" height="32px" viewBox="0 0 32 32" enable-background="new 0 0 32 32" xml:space="preserve">
<g>
	<path id="XMLID_10_" fill="#333333" d="M12.279,5.181c-0.267-0.605-0.637-1.166-1.119-1.648C10.14,2.512,8.784,1.95,7.342,1.951
		c-1.443,0-2.8,0.562-3.82,1.582S1.939,5.91,1.939,7.353s0.563,2.799,1.582,3.819c0.48,0.48,1.039,0.849,1.642,1.116
		c-1.374,0.611-2.597,1.498-3.607,2.586C0.546,13.325,0,11.52,0,9.628C0,7.056,1.001,4.639,2.819,2.82C4.639,1.001,7.056,0,9.628,0
		c1.892,0,3.697,0.546,5.245,1.556C13.78,2.571,12.891,3.799,12.279,5.181z"/>
	<path id="XMLID_9_" fill="#333333" d="M19.721,26.809c0.268,0.609,0.641,1.174,1.125,1.658c1.021,1.021,2.375,1.583,3.818,1.583
		c2.979,0,5.4-2.424,5.4-5.401c0-1.441-0.563-2.799-1.582-3.817c-0.482-0.481-1.045-0.854-1.65-1.121
		c1.375-0.61,2.598-1.497,3.609-2.586C31.453,18.671,32,20.479,32,22.372c0,2.571-1.001,4.989-2.82,6.81
		C27.361,30.999,24.943,32,22.372,32c-1.894,0-3.701-0.547-5.25-1.559C18.217,29.425,19.107,28.193,19.721,26.809z"/>
	<path id="XMLID_8_" fill="#333333" d="M19.251,21.309c-0.054-0.494-1.483-0.605-3.246-0.605c-1.724,0-3.13,0.097-3.24,0.574
		c-0.007-0.002-0.015-0.004-0.022-0.008v3.406c0,0.379-0.04,0.746-0.114,1.102c-0.076,0.369-0.194,0.722-0.342,1.059
		c-0.835,1.905-2.734,3.243-4.944,3.243c-1.443,0-2.8-0.563-3.82-1.582s-1.582-2.377-1.582-3.82c0-2.213,1.342-4.114,3.252-4.948
		c0.339-0.146,0.693-0.267,1.063-0.343c0.351-0.069,0.714-0.108,1.086-0.108h3.316c0.008,0,0.015,0.004,0.022,0.004
		c0.007,0,0.015-0.004,0.022-0.004h0.005c-0.001,0-0.001,0-0.001,0c0.495-0.051,0.609-1.488,0.609-3.257
		c0-1.725-0.094-3.133-0.571-3.251c0.002-0.004,0.003-0.008,0.005-0.012H9.303c-2.735,0.093-5.181,1.328-6.878,3.247
		c-0.156,0.178-0.306,0.36-0.449,0.549c-0.146,0.19-0.286,0.385-0.417,0.584c-0.98,1.51-1.557,3.303-1.557,5.232
		c0,2.57,1.002,4.988,2.82,6.808c1.818,1.819,4.236,2.82,6.808,2.82c1.929,0,3.724-0.576,5.231-1.558
		c0.201-0.131,0.395-0.271,0.585-0.416c0.188-0.146,0.371-0.293,0.548-0.449c1.997-1.766,3.265-4.338,3.265-7.205v-1.061
		C19.256,21.307,19.254,21.309,19.251,21.309z"/>
	<path id="XMLID_7_" fill="#333333" d="M29.176,2.82C27.355,1.001,24.939,0,22.367,0c-1.93,0-3.727,0.576-5.233,1.558
		c-0.2,0.131-0.396,0.272-0.585,0.417c-0.188,0.144-0.371,0.293-0.548,0.45c-1.979,1.751-3.238,4.296-3.259,7.136v1.302
		c0.006-0.002,0.012-0.003,0.018-0.005c0.059,0.493,1.487,0.605,3.245,0.605c1.796,0,3.252-0.129,3.252-0.636
		c0.005,0.001,0.009,0.002,0.013,0.004V7.345c0-0.375,0.039-0.741,0.112-1.095c0.076-0.37,0.195-0.723,0.343-1.061
		c0.836-1.906,2.735-3.245,4.946-3.246c1.442,0,2.8,0.562,3.819,1.583c1.021,1.02,1.582,2.376,1.582,3.819
		c0,2.208-1.336,4.105-3.237,4.942c-0.335,0.147-0.687,0.266-1.054,0.343c-0.358,0.075-0.729,0.117-1.11,0.117h-2.235h-0.967
		c-0.009-0.001-0.018-0.005-0.025-0.005c-0.006,0-0.019,0.004-0.024,0.005H21.35c0.002,0.004,0.004,0.008,0.006,0.012
		c-0.467,0.159-0.547,1.546-0.547,3.234c0,1.753,0.108,3.178,0.602,3.245c-0.001,0.003-0.002,0.005-0.003,0.008h1.17
		c2.782-0.061,5.272-1.305,6.995-3.252c0.156-0.177,0.308-0.359,0.449-0.548c0.146-0.19,0.287-0.383,0.418-0.584
		c0.98-1.509,1.56-3.304,1.56-5.234C31.996,7.057,30.994,4.639,29.176,2.82z"/>
</g>
</svg>
