<?xml version="1.0" encoding="utf-8"?>
<!-- Generator: Adobe Illustrator 16.0.0, SVG Export Plug-In . SVG Version: 6.00 Build 0)  -->
<!DOCTYPE svg PUBLIC "-//W3C//DTD SVG 1.1//EN" "http://www.w3.org/Graphics/SVG/1.1/DTD/svg11.dtd">
<svg version="1.1" id="Layer_1" xmlns="http://www.w3.org/2000/svg" xmlns:xlink="http://www.w3.org/1999/xlink" x="0px" y="0px"
	 width="32px" height="32px" viewBox="0 0 32 32" enable-background="new 0 0 32 32" xml:space="preserve">
<g>
	<path id="XMLID_10_" fill="#FFFFFF" d="M12.279,5.181c-0.267-0.605-0.637-1.166-1.119-1.648c-1.02-1.021-2.376-1.583-3.818-1.582
		c-1.443,0-2.8,0.562-3.82,1.582S1.939,5.91,1.939,7.353s0.563,2.799,1.582,3.819c0.48,0.48,1.039,0.849,1.642,1.116
		c-1.374,0.611-2.597,1.498-3.607,2.586C0.546,13.325,0,11.52,0,9.628C0,7.056,1.001,4.639,2.819,2.82C4.639,1.001,7.056,0,9.628,0
		c1.892,0,3.697,0.546,5.245,1.556C13.78,2.571,12.891,3.799,12.279,5.181z"/>
	<path id="XMLID_9_" fill="#FFFFFF" d="M19.721,26.809c0.267,0.609,0.64,1.174,1.124,1.658c1.021,1.021,2.376,1.583,3.819,1.583
		c2.978,0,5.401-2.424,5.401-5.401c0-1.443-0.563-2.8-1.582-3.819c-0.483-0.483-1.045-0.854-1.651-1.121
		c1.375-0.611,2.598-1.497,3.609-2.586C31.453,18.671,32,20.479,32,22.372c0,2.572-1.001,4.989-2.82,6.809
		C27.361,30.999,24.943,32,22.372,32c-1.894,0-3.701-0.547-5.25-1.559C18.217,29.425,19.108,28.193,19.721,26.809z"/>
	<path id="XMLID_8_" fill="#FFFFFF" d="M19.251,21.309c-0.054-0.494-1.484-0.607-3.246-0.607c-1.724,0-3.13,0.097-3.24,0.575
		c-0.007-0.002-0.015-0.004-0.022-0.007v3.406c0,0.378-0.04,0.746-0.114,1.102c-0.076,0.368-0.194,0.72-0.342,1.057
		c-0.835,1.905-2.734,3.243-4.944,3.243c-1.443,0-2.8-0.562-3.82-1.582s-1.582-2.377-1.582-3.82c0-2.213,1.342-4.116,3.252-4.949
		c0.339-0.147,0.693-0.266,1.063-0.342c0.351-0.071,0.714-0.109,1.086-0.109h3.316c0.008,0,0.015,0.004,0.022,0.004
		s0.015-0.004,0.022-0.004h0.005c-0.001-0.001-0.001-0.001-0.001-0.001c0.495-0.051,0.609-1.488,0.609-3.257
		c0-1.725-0.094-3.133-0.571-3.251c0.002-0.004,0.003-0.008,0.005-0.012H9.303c-2.735,0.093-5.181,1.328-6.878,3.247
		c-0.156,0.178-0.306,0.36-0.449,0.549c-0.146,0.19-0.286,0.384-0.417,0.584c-0.98,1.509-1.557,3.303-1.557,5.232
		c0,2.571,1.002,4.989,2.82,6.808s4.236,2.82,6.808,2.82c1.929,0,3.724-0.576,5.231-1.557c0.201-0.131,0.395-0.271,0.585-0.417
		c0.188-0.144,0.371-0.293,0.548-0.449c1.997-1.766,3.265-4.337,3.265-7.205v-1.06C19.256,21.307,19.254,21.308,19.251,21.309z"/>
	<path id="XMLID_7_" fill="#FFFFFF" d="M29.176,2.82C27.356,1.001,24.939,0,22.367,0c-1.93,0-3.726,0.576-5.233,1.558
		c-0.201,0.131-0.395,0.272-0.585,0.417c-0.188,0.144-0.371,0.293-0.548,0.45c-1.979,1.751-3.238,4.296-3.259,7.136v1.302
		c0.006-0.002,0.012-0.003,0.018-0.005c0.059,0.493,1.487,0.605,3.245,0.605c1.796,0,3.252-0.129,3.252-0.636
		c0.004,0.001,0.008,0.002,0.013,0.004V7.345c0-0.375,0.039-0.741,0.112-1.095c0.076-0.37,0.195-0.723,0.343-1.061
		c0.835-1.906,2.735-3.245,4.946-3.246c1.443,0,2.799,0.562,3.819,1.583c1.021,1.02,1.582,2.376,1.582,3.819
		c0,2.208-1.335,4.105-3.237,4.942c-0.335,0.147-0.687,0.266-1.054,0.343c-0.358,0.075-0.729,0.117-1.11,0.117h-2.236h-0.966
		c-0.009-0.001-0.018-0.005-0.026-0.005s-0.018,0.004-0.025,0.005h-0.068c0.002,0.004,0.003,0.008,0.005,0.012
		c-0.466,0.159-0.547,1.546-0.547,3.234c0,1.753,0.109,3.178,0.601,3.245c-0.001,0.003-0.002,0.005-0.003,0.008h1.17
		c2.783-0.06,5.274-1.305,6.997-3.252c0.156-0.177,0.306-0.359,0.449-0.548c0.146-0.19,0.286-0.383,0.417-0.584
		c0.981-1.509,1.559-3.304,1.559-5.234C31.996,7.057,30.994,4.639,29.176,2.82z"/>
</g>
</svg>
