<?xml version="1.0" encoding="utf-8"?>
<!-- Generator: Adobe Illustrator 16.0.0, SVG Export Plug-In . SVG Version: 6.00 Build 0)  -->
<!DOCTYPE svg PUBLIC "-//W3C//DTD SVG 1.1//EN" "http://www.w3.org/Graphics/SVG/1.1/DTD/svg11.dtd">
<svg version="1.1" id="Layer_1" xmlns="http://www.w3.org/2000/svg" xmlns:xlink="http://www.w3.org/1999/xlink" x="0px" y="0px"
	 width="33.488px" height="32px" viewBox="0 0 33.488 32" enable-background="new 0 0 33.488 32" xml:space="preserve">
<g>
	<path id="LinkedIn" fill="#333333" d="M33.488,19.619V32H26.31V20.447c0-2.901-1.038-4.882-3.638-4.882
		c-1.981,0-3.161,1.335-3.684,2.626c-0.188,0.461-0.238,1.104-0.238,1.75V32h-7.18c0,0,0.097-19.564,0-21.592h7.18v3.061
		c-0.015,0.022-0.031,0.048-0.047,0.069h0.047v-0.069c0.954-1.47,2.657-3.568,6.473-3.568C29.947,9.901,33.488,12.987,33.488,19.619
		z M4.063,0C1.606,0,0,1.611,0,3.729C0,5.802,1.56,7.461,3.968,7.461h0.05c2.504,0,4.061-1.66,4.061-3.732
		C8.029,1.611,6.52,0,4.063,0z M0.427,32h7.177V10.408H0.427V32z"/>
</g>
</svg>
