<?xml version="1.0" encoding="utf-8"?>
<!-- Generator: Adobe Illustrator 16.0.0, SVG Export Plug-In . SVG Version: 6.00 Build 0)  -->
<!DOCTYPE svg PUBLIC "-//W3C//DTD SVG 1.1//EN" "http://www.w3.org/Graphics/SVG/1.1/DTD/svg11.dtd">
<svg version="1.1" id="Layer_1" xmlns="http://www.w3.org/2000/svg" xmlns:xlink="http://www.w3.org/1999/xlink" x="0px" y="0px"
	 width="36.57px" height="32px" viewBox="0 0 36.57 32" enable-background="new 0 0 36.57 32" xml:space="preserve">
<g>
	<path fill="#333333" d="M21.22,11.429H4.572v2.285h15.365C20.332,12.989,20.757,12.228,21.22,11.429 M4.572,18.284h13.111
		c0.306-0.714,0.661-1.476,1.063-2.284H4.572V18.284z M4.572,22.861l12.233-0.021c0.306-0.717,0.38-1.457,0.781-2.266H4.572V22.861z
		 M4.572,27.439l11.459-0.023c0.307-0.713,0.38-1.452,0.782-2.262H4.572V27.439z M22.208,8.583c0.046-0.079,0.277-0.461,0.647-1.036
		v-0.69h-9.145v2.285h8.243C22.019,8.948,22.104,8.76,22.208,8.583 M25.142,24.109v5.604H2.286V10.667
		c0-0.631,0.512-1.525,1.143-1.525h3.429c1.263,0,2.286-1.021,2.286-2.285V3.429c0-0.631,0.894-1.144,1.523-1.144h14.476v1.981
		c0.662-0.879,1.399-1.796,2.183-2.658c-0.105-0.343-0.296-0.668-0.566-0.938C26.311,0.224,25.726,0,25.142,0H10.856
		c-1.46,0-2.869,0.584-3.901,1.617L1.616,6.956C0.583,7.987,0,9.397,0,10.857v18.857c0,0.585,0.223,1.171,0.668,1.615
		C1.116,31.775,1.7,32,2.286,32h22.855c0.586,0,1.169-0.225,1.614-0.671c0.447-0.444,0.67-1.03,0.67-1.615v-8.745
		C26.621,22.186,25.865,23.227,25.142,24.109"/>
	<path fill="#333333" d="M18.417,24.962c-0.705,1.558-1.016,2.687-0.722,2.854c0.292,0.17,1.115-0.662,2.112-2.051
		c1.864-0.856,4.204-3.179,8.361-10.375l-4.949-2.855C19.066,19.732,18.228,22.917,18.417,24.962 M36.167,4.171
		c-0.254-0.146-0.579-0.014-0.646,0.271c-0.773,3.346-2.733,7.424-3.951,9.621c-0.152,0.276-0.055,0.619,0.219,0.776
		c0.279,0.162,0.634,0.049,0.788-0.235c1.082-1.948,2.536-4.973,3.474-7.822c0.195-0.596,0.36-1.161,0.496-1.695
		C36.635,4.731,36.486,4.355,36.167,4.171 M33.697,0.105c-1.589-0.917-6.358,4.351-9.522,9.65c-0.166,0.276-0.089,0.638,0.189,0.799
		l4.95,2.856c0.277,0.161,0.63,0.049,0.786-0.231C33.109,7.787,35.285,1.023,33.697,0.105"/>
</g>
</svg>
