<?xml version="1.0" encoding="utf-8"?>
<!-- Generator: Adobe Illustrator 16.0.0, SVG Export Plug-In . SVG Version: 6.00 Build 0)  -->
<!DOCTYPE svg PUBLIC "-//W3C//DTD SVG 1.1//EN" "http://www.w3.org/Graphics/SVG/1.1/DTD/svg11.dtd">
<svg version="1.1" id="Layer_1" xmlns="http://www.w3.org/2000/svg" xmlns:xlink="http://www.w3.org/1999/xlink" x="0px" y="0px"
	 width="39.396px" height="32px" viewBox="0 0 39.396 32" enable-background="new 0 0 39.396 32" xml:space="preserve">
<g>
	<g>
		<path fill="#FFFFFF" d="M39.396,3.786c-1.45,0.642-3.006,1.078-4.642,1.273c1.669-1,2.948-2.585,3.554-4.469
			c-1.566,0.926-3.295,1.598-5.136,1.962C31.698,0.98,29.601,0,27.275,0c-4.465,0-8.083,3.619-8.083,8.08
			c0,0.632,0.072,1.25,0.209,1.842C12.686,9.583,6.73,6.366,2.745,1.477C2.049,2.668,1.652,4.057,1.652,5.54
			c0,2.804,1.428,5.278,3.594,6.724c-1.324-0.043-2.57-0.407-3.661-1.013v0.101c0,3.915,2.787,7.182,6.482,7.925
			c-0.677,0.183-1.392,0.283-2.129,0.283c-0.521,0-1.027-0.053-1.521-0.15c1.029,3.213,4.014,5.549,7.548,5.613
			c-2.765,2.166-6.25,3.453-10.036,3.453c-0.653,0-1.296-0.039-1.929-0.11C3.578,30.661,7.824,32,12.388,32
			c14.866,0,22.992-12.313,22.992-22.993l-0.025-1.046C36.941,6.829,38.315,5.405,39.396,3.786z"/>
	</g>
</g>
</svg>
